# xmcd
#
# Track frame offsets: 
#        150
#        13580
#        25605
#        38860
#        61160
#        79565
#        97642
#        121407
#        138050
#        152882
#        169405
#        184627
#        197520
#        210602
#
# Disc length: 2932 seconds
#
# Revision: 1
# Processed by: cddbd v1.5.1PL0 Copyright (c) Steve Scherf et al.
# Submitted via: ExactAudioCopy v0.95b3
#
DISCID=a40b720e
DTITLE=Collard Greens and Gravy - More Gravy
DYEAR=2000
DGENRE=Blues
TTITLE0=You Put Your Spell On Me
TTITLE1=Pretty Thing
TTITLE2=Hate To See You
TTITLE3=More Gravy
TTITLE4=Leavin' You
TTITLE5=Your Gonna Need My Help
TTITLE6=Goin' Down South
TTITLE7=Tell Me Baby
TTITLE8=Gonna Wait Till A Change Come
TTITLE9=Do My Thang
TTITLE10=Change My Ways
TTITLE11=Gravy Groan
TTITLE12=Goin' Home
TTITLE13=Cluck Ol' Hen
EXTD=YEAR: 2000 ID3G: 0
EXTT0=
EXTT1=
EXTT2=
EXTT3=
EXTT4=
EXTT5=
EXTT6=
EXTT7=
EXTT8=
EXTT9=
EXTT10=
EXTT11=
EXTT12=
EXTT13=
PLAYORDER=
